<svg xmlns="http://www.w3.org/2000/svg" viewBox="0 0 600 780" role="img" aria-labelledby="title desc">
  <title id="title">Original illustrated bottle reference for Beefeater, London dry gin.</title>
  <desc id="desc">A clearly labelled original reference illustration, not an official product pack shot.</desc>
  <defs>
    <linearGradient id="background" x1="0" y1="0" x2="1" y2="1">
      <stop stop-color="#fbf6ed"/>
      <stop offset="1" stop-color="hsl(253 62% 58%)" stop-opacity=".2"/>
    </linearGradient>
    <linearGradient id="glass" x1="0" y1="0" x2="1" y2="0">
      <stop stop-color="hsl(211 35% 32%)"/>
      <stop offset=".45" stop-color="hsl(253 62% 58%)"/>
      <stop offset=".72" stop-color="hsl(211 35% 32%)"/>
    </linearGradient>
    <filter id="shadow" x="-40%" y="-20%" width="180%" height="160%">
      <feDropShadow dx="0" dy="18" stdDeviation="18" flood-color="#173f37" flood-opacity=".22"/>
    </filter>
  </defs>
  <rect width="600" height="780" rx="40" fill="url(#background)"/>
  <path d="M80 124q92-74 174-13t167 13q53-30 99-6" fill="none" stroke="hsl(253 62% 58%)" stroke-width="12" stroke-linecap="round" opacity=".38"/>
  <ellipse cx="300" cy="698" rx="185" ry="28" fill="#173f37" opacity=".14"/>
  <g filter="url(#shadow)">
    <rect x="251" y="82" width="98" height="84" rx="12" fill="#173f37"/>
    <rect x="242" y="148" width="116" height="140" rx="34" fill="url(#glass)" stroke="#173f37" stroke-width="8"/>
    <path d="M242 240q-18 48-67 88-33 27-33 85v226q0 42 42 42h232q42 0 42-42V413q0-58-33-85-49-40-67-88z" fill="url(#glass)" stroke="#173f37" stroke-width="9" stroke-linejoin="round"/>
    <path d="M205 313q-30 46-30 106v180" fill="none" stroke="#fff" stroke-width="18" stroke-linecap="round" opacity=".2"/>
    <rect x="166" y="310" width="268" height="312" rx="22" fill="#fffaf0" stroke="#173f37" stroke-width="7"/>
    <path d="M166 360h268" stroke="hsl(253 62% 58%)" stroke-width="13"/>
    <text x="300" y="344" text-anchor="middle" fill="#173f37" font-family="Arial, sans-serif" font-size="15" font-weight="800" letter-spacing="2.4">BOTTLE REFERENCE</text>
    <text x="300" y="392" text-anchor="middle" fill="#173f37" font-family="Georgia, serif" font-size="22" font-weight="700">Beefeater</text>
    <text x="300" y="448" text-anchor="middle" fill="#7b3628" font-family="Arial, sans-serif" font-size="13" font-weight="800">LONDON DRY GIN</text>
  </g>
  <text x="300" y="744" text-anchor="middle" fill="#50635d" font-family="Arial, sans-serif" font-size="17" font-weight="700" letter-spacing="1.5">ORIGINAL LABELLED ILLUSTRATION</text>
</svg>