<svg xmlns="http://www.w3.org/2000/svg" viewBox="0 0 800 450" role="img" aria-labelledby="title desc">
  <title id="title">Illustration of an amber Old Fashioned over a large ice cube with orange peel.</title>
  <desc id="desc">Original editorial illustration created for this offline recipe guide.</desc>
  <defs>
    <linearGradient id="paper" x1="0" y1="0" x2="1" y2="1">
      <stop stop-color="#f8f2e7"/>
      <stop offset="1" stop-color="#d99a45" stop-opacity=".32"/>
    </linearGradient>
    <filter id="shadow" x="-20%" y="-20%" width="140%" height="160%">
      <feDropShadow dx="0" dy="14" stdDeviation="14" flood-color="#173f37" flood-opacity=".2"/>
    </filter>
  </defs>
  <rect width="800" height="450" rx="32" fill="url(#paper)"/>
  <circle cx="96" cy="70" r="42" fill="#683915" opacity=".12"/>
  <path d="M27 353q146-63 296-12t278 4q98-35 172-7v112H27z" fill="#683915" opacity=".08"/>
  <ellipse cx="400" cy="420" rx="240" ry="20" fill="#173f37" opacity=".12"/>
  <g filter="url(#shadow)">
      <path d="M240 92h320l-23 292q-2 30-32 30H295q-30 0-32-30z" fill="#fff" fill-opacity=".22" stroke="#173f37" stroke-width="7" stroke-linejoin="round"/>
      <path d="M258 188h284l-15 191q-2 20-23 20H296q-21 0-23-20z" fill="#a85d24" opacity=".95"/>
      <rect x="298" y="178" width="76" height="64" rx="12" transform="rotate(-10 336 210)" fill="#fff" fill-opacity=".22" stroke="#fff" stroke-opacity=".55" stroke-width="4"/><rect x="390" y="145" width="76" height="64" rx="12" transform="rotate(8 428 177)" fill="#fff" fill-opacity=".22" stroke="#fff" stroke-opacity=".55" stroke-width="4"/><rect x="465" y="190" width="76" height="64" rx="12" transform="rotate(-7 503 222)" fill="#fff" fill-opacity=".22" stroke="#fff" stroke-opacity=".55" stroke-width="4"/><rect x="338" y="258" width="76" height="64" rx="12" transform="rotate(10 376 290)" fill="#fff" fill-opacity=".22" stroke="#fff" stroke-opacity=".55" stroke-width="4"/><rect x="430" y="270" width="76" height="64" rx="12" transform="rotate(-11 468 302)" fill="#fff" fill-opacity=".22" stroke="#fff" stroke-opacity=".55" stroke-width="4"/>
      <path d="M240 92h320" stroke="#173f37" stroke-width="8" stroke-linecap="round"/>
    </g>
  <path d="M520 72c54 22 49 67 2 82-38 12-65 45-30 74" fill="none" stroke="#e8772f" stroke-width="18" stroke-linecap="round"/><path d="M520 72c54 22 49 67 2 82" fill="none" stroke="#173f37" stroke-width="5" stroke-linecap="round" stroke-linejoin="round"/>
  <path d="M95 131q35-29 68-2t68-2" fill="none" stroke="#683915" stroke-width="6" stroke-linecap="round" opacity=".35"/>
</svg>